#!OML:ASF E:\motion texture\Top Level 1\Subject 1\Session 1\male.ASF
:FULLY-SPECIFIED
:DEGREES
354
root 5.21156 17.31 6.10523 144.254 -83.468 -137.388
lowerback -1.82987 -3.4085 6.74215
upperback -1.79709 -4.91129 7.58194
thorax -0.716272 -2.61679 4.03097
lowerneck -20.6572 0.884872 0.666363
upperneck 4.98155 0.0251282 6.99284
head 4.8035 0.440977 2.10545
rclavicle 2.57426e-014 -1.06549e-013
rhumerus 40.0394 -43.9442 -10.5669
rradius 53.1524
rwrist 4.02247
rhand -20.8329 -27.3998
rfingers 7.12502
rthumb 5.53571 -57.3075
lclavicle 2.57426e-014 -1.06549e-013
lhumerus -40.427 -8.82247 100.593
lradius 33.7889
lwrist -21.1239
lhand -11.7276 20.0462
lfingers 7.12502
lthumb 14.3195 49.5324
rfemur -37.0932 2.6823 23.2646
rtibia 35.0586
rfoot -3.66725 -1.00766
rtoes 13.5094
lfemur -0.491623 -0.103486 -18.2465
ltibia 40.4026
lfoot -10.6607 -0.441169
ltoes -17.9294
355
root 5.04872 17.3368 6.07376 141.371 -83.4283 -134.551
lowerback -1.78999 -3.31587 6.88862
upperback -1.74937 -4.78951 7.57646
thorax -0.703993 -2.5567 3.94663
lowerneck -20.7225 0.8649 0.603603
upperneck 4.81965 0.0349862 6.87356
head 4.76076 0.43236 2.07783
rclavicle -3.37934e-015 -6.36111e-015
rhumerus 38.1463 -43.7638 -10.0011
rradius 54.7395
rwrist 3.36503
rhand -21.1632 -27.6099
rfingers 7.12502
rthumb 5.21681 -57.5257
lclavicle -3.37934e-015 -6.36111e-015
lhumerus -40.2916 -8.61373 100.392
lradius 33.8345
lwrist -21.2559
lhand -11.6546 19.9183
lfingers 7.12502
lthumb 14.3898 49.3995
rfemur -36.3221 2.82598 23.6479
rtibia 34.908
rfoot -3.82842 -1.00512
rtoes 14.0698
lfemur -1.32469 0.0957374 -17.6315
ltibia 41.9207
lfoot -9.71112 -0.646229
ltoes -17.9189
356
root 4.8869 17.3657 6.04146 138.5 -83.3786 -131.728
lowerback -1.75128 -3.21907 7.02074
upperback -1.69867 -4.66147 7.55996
thorax -0.687248 -2.49285 3.85829
lowerneck -20.7847 0.837057 0.524772
upperneck 4.65551 0.0373932 6.76412
head 4.71717 0.42047 2.05516
rclavicle 2.3059e-014 -3.49861e-014
rhumerus 35.9866 -43.4256 -9.28777
rradius 56.5276
rwrist 2.60582
rhand -21.4754 -27.8216
rfingers 7.12502
rthumb 4.91537 -57.7446
lclavicle 2.3059e-014 -3.49861e-014
lhumerus -40.1494 -8.41049 100.173
lradius 33.9167
lwrist -21.3723
lhand -11.5796 19.7823
lfingers 7.12502
lthumb 14.4621 49.2583
rfemur -35.5017 2.96902 24.0309
rtibia 34.6732
rfoot -3.99708 -1.0332
rtoes 14.5952
lfemur -2.2046 0.297228 -17.0123
ltibia 43.4234
lfoot -8.78969 -0.828581
ltoes -17.8505
357
root 4.72622 17.3964 6.00842 135.662 -83.3191 -128.942
lowerback -1.71407 -3.11954 7.13742
upperback -1.6473 -4.52892 7.53315
thorax -0.668063 -2.42619 3.76738
lowerneck -20.8294 0.802546 0.428138
upperneck 4.48484 0.0352339 6.66444
head 4.6691 0.406414 2.03779
rclavicle 2.71341e-014 2.06736e-014
rhumerus 33.6026 -42.9219 -8.4751
rradius 58.5076
rwrist 1.76801
rhand -21.7682 -28.0387
rfingers 7.12502
rthumb 4.63265 -57.9681
lclavicle 2.71341e-014 2.06736e-014
lhumerus -40.0061 -8.2081 99.9365
lradius 34.0386
lwrist -21.47
lhand -11.4857 19.6467
lfingers 7.12502
lthumb 14.5526 49.1163
rfemur -34.6364 3.1106 24.4127
rtibia 34.3582
rfoot -4.17143 -1.09118
rtoes 15.0802
lfemur -3.12956 0.5005 -16.3933
ltibia 44.9028
lfoot -7.90976 -0.987183
ltoes -17.7452
358
root 4.5668 17.4286 5.97476 132.889 -83.2502 -126.222
lowerback -1.67897 -3.01614 7.23976
upperback -1.59193 -4.39065 7.49376
thorax -0.642895 -2.35595 3.67074
lowerneck -20.8672 0.761758 0.318625
upperneck 4.30984 0.027322 6.57278
head 4.61886 0.38979 2.0244
rclavicle -4.31363e-014 4.92986e-014
rhumerus 31.0357 -42.2597 -7.61603
rradius 60.6674
rwrist 0.881098
rhand -22.0406 -28.255
rfingers 7.12502
rthumb 4.36956 -58.19
lclavicle -4.31363e-014 4.92986e-014
lhumerus -39.8566 -8.01297 99.6821
lradius 34.2007
lwrist -21.5432
lhand -11.3913 19.5145
lfingers 7.12502
lthumb 14.6436 48.9775
rfemur -33.7303 3.25224 24.7911
rtibia 33.9682
rfoot -4.34876 -1.1778
rtoes 15.5359
lfemur -4.09666 0.706193 -15.7789
ltibia 46.3507
lfoot -7.08139 -1.12025
ltoes -17.6099
359
root 4.4086 17.4623 5.94062 130.188 -83.1725 -123.576
lowerback -1.64157 -2.90914 7.32798
upperback -1.53538 -4.24632 7.44333
thorax -0.617032 -2.28214 3.57034
lowerneck -20.8989 0.714675 0.198895
upperneck 4.13667 0.013393 6.48355
head 4.56855 0.370424 2.01285
rclavicle -3.18055e-014 -2.70347e-014
rhumerus 28.3274 -41.4349 -6.75627
rradius 62.9953
rwrist -0.0332785
rhand -22.2982 -28.4719
rfingers 7.12502
rthumb 4.1208 -58.4118
lclavicle -3.18055e-014 -2.70347e-014
lhumerus -39.7036 -7.82238 99.4128
lradius 34.4014
lwrist -21.5952
lhand -11.2964 19.3841
lfingers 7.12502
lthumb 14.7349 48.8404
rfemur -32.7859 3.39082 25.167
rtibia 33.5062
rfoot -4.52689 -1.29075
rtoes 15.9525
lfemur -5.10053 0.912771 -15.1722
ltibia 47.7569
lfoot -6.30756 -1.22755
ltoes -17.4646
360
root 4.25167 17.497 5.90607 127.572 -83.0857 -121.018
lowerback -1.60501 -2.79904 7.4028
upperback -1.47584 -4.09724 7.3824
thorax -0.586822 -2.20537 3.46606
lowerneck -20.9207 0.662503 0.065854
upperneck 3.96069 -0.0043801 6.40087
head 4.51607 0.349399 2.00507
rclavicle 3.27995e-014 3.18055e-014
rhumerus 25.5225 -40.4536 -5.94793
rradius 65.4769
rwrist -0.946624
rhand -22.542 -28.6847
rfingers 7.12502
rthumb 3.88542 -58.629
lclavicle 3.27995e-014 3.18055e-014
lhumerus -39.545 -7.63335 99.128
lradius 34.6409
lwrist -21.6253
lhand -11.2018 19.2589
lfingers 7.12502
lthumb 14.8261 48.7085
rfemur -31.8075 3.52646 25.542
rtibia 32.9812
rfoot -4.71758 -1.43155
rtoes 16.3268
lfemur -6.13913 1.12198 -14.5746
ltibia 49.1148
lfoot -5.59655 -1.30953
ltoes -17.0958
361
root 4.09601 17.5326 5.87117 125.046 -82.9923 -118.551
lowerback -1.56998 -2.68671 7.46418
upperback -1.41381 -3.94461 7.31078
thorax -0.552354 -2.12623 3.35774
lowerneck -20.9312 0.606076 -0.0785028
upperneck 3.78245 -0.0252748 6.32335
head 4.46137 0.32704 2.00037
rclavicle 4.45278e-014 -4.45278e-014
rhumerus 22.6591 -39.3199 -5.23615
rradius 68.0952
rwrist -1.83116
rhand -22.7681 -28.8884
rfingers 7.12502
rthumb 3.66703 -58.8366
lclavicle 4.45278e-014 -4.45278e-014
lhumerus -39.383 -7.44594 98.8282
lradius 34.9213
lwrist -21.6315
lhand -11.1121 19.1366
lfingers 7.12502
lthumb 14.9125 48.5798
rfemur -30.7971 3.65758 25.9156
rtibia 32.4007
rfoot -4.92739 -1.59856
rtoes 16.6355
lfemur -7.20875 1.33226 -13.9896
ltibia 50.416
lfoot -4.95246 -1.36548
ltoes -16.9161
362
root 3.94163 17.5688 5.83598 122.611 -82.8942 -116.176
lowerback -1.53768 -2.57268 7.51159
upperback -1.34831 -3.78944 7.22897
thorax -0.511883 -2.0452 3.24611
lowerneck -20.933 0.546153 -0.233162
upperneck 3.6026 -0.0486495 6.25016
head 4.40504 0.30369 1.99843
rclavicle -9.93923e-016 3.49861e-014
rhumerus 19.7716 -38.0428 -4.66052
rradius 70.8298
rwrist -2.65625
rhand -22.9833 -29.0803
rfingers 7.12502
rthumb 3.4592 -59.032
lclavicle -9.93923e-016 3.49861e-014
lhumerus -39.2151 -7.26118 98.5155
lradius 35.2405
lwrist -21.6107
lhand -11.0256 19.0238
lfingers 7.12502
lthumb 14.9958 48.4608
rfemur -29.7582 3.78437 26.2855
rtibia 31.7676
rfoot -5.14751 -1.78432
rtoes 16.9079
lfemur -8.30602 1.5426 -13.4202
ltibia 51.6529
lfoot -4.37606 -1.39586
ltoes -16.7335
363
root 3.78854 17.6052 5.80058 120.268 -82.7941 -113.893
lowerback -1.50671 -2.45742 7.54424
upperback -1.28107 -3.63201 7.1372
thorax -0.467947 -1.96251 3.13207
lowerneck -20.9221 0.483042 -0.397198
upperneck 3.42095 -0.0740747 6.17976
head 4.34641 0.279462 1.99864
rclavicle -7.35503e-015 9.54166e-015
rhumerus 16.8843 -36.6254 -4.24791
rradius 73.66
rwrist -3.39617
rhand -23.1876 -29.2641
rfingers 7.12502
rthumb 3.26194 -59.2189
lclavicle -7.35503e-015 9.54166e-015
lhumerus -39.0414 -7.07797 98.1918
lradius 35.5944
lwrist -21.5639
lhand -10.9445 18.9189
lfingers 7.12502
lthumb 15.074 48.3501
rfemur -28.6957 3.9062 26.6495
rtibia 31.0884
rfoot -5.37115 -1.98391
rtoes 17.1628
lfemur -9.42696 1.75136 -12.87
ltibia 52.817
lfoot -3.87367 -1.40029
ltoes -16.5602
